<?xml version="1.0" encoding="utf-8"?>
<!-- Generator: Adobe Illustrator 24.1.3, SVG Export Plug-In . SVG Version: 6.00 Build 0)  -->
<svg version="1.1" id="Layer_1" xmlns="http://www.w3.org/2000/svg" xmlns:xlink="http://www.w3.org/1999/xlink" x="0px" y="0px"
	 viewBox="0 0 483 320" style="enable-background:new 0 0 483 320;" xml:space="preserve">
<style type="text/css">
	.st0{fill:#FFFFFF;}
	.st1{fill:#00904C;}
	.st2{fill:none;stroke:#000000;stroke-width:0.75;stroke-linecap:round;stroke-linejoin:round;stroke-miterlimit:10;}
	.st3{fill:#A2D6B3;}
	.st4{fill:#00B272;stroke:#000000;stroke-width:0.75;stroke-linecap:round;stroke-linejoin:round;stroke-miterlimit:10;}
	.st5{fill:#BBE0C6;}
	.st6{fill:#BEBEBE;}
	.st7{fill:#BBE0C6;stroke:#000000;stroke-width:0.75;stroke-linecap:round;stroke-linejoin:round;stroke-miterlimit:10;}
	.st8{fill:#EBF5ED;}
	.st9{fill:#EBF5ED;stroke:#000000;stroke-width:0.75;stroke-linecap:round;stroke-linejoin:round;stroke-miterlimit:10;}
	.st10{fill:#75C594;stroke:#000000;stroke-width:0.75;stroke-linecap:round;stroke-linejoin:round;stroke-miterlimit:10;}
	.st11{font-family:'Georgia';}
	.st12{font-size:13px;}
	.st13{font-family:'Futura-CondensedExtraBold';}
	.st14{font-size:19px;}
	.st15{font-family:'Futura-CondensedMedium';}
	.st16{fill:#00904C;stroke:#000000;stroke-width:0.5;stroke-miterlimit:10;}
	.st17{fill:#00B272;stroke:#000000;stroke-width:0.5;stroke-miterlimit:10;}
	.st18{fill:#75C594;stroke:#000000;stroke-width:0.5;stroke-miterlimit:10;}
	.st19{fill:#BBE0C6;stroke:#000000;stroke-width:0.5;stroke-miterlimit:10;}
	.st20{fill:#EBF5ED;stroke:#000000;stroke-width:0.5;stroke-miterlimit:10;}
	.st21{font-size:12px;}
</style>
<rect y="-0.2" class="st0" width="483.8" height="320.2"/>
<rect x="73.7" y="58.8" class="st1" width="7.8" height="185.9"/>
<rect x="73.7" y="58.8" class="st2" width="7.8" height="185.9"/>
<rect x="83.1" y="123" class="st3" width="7.8" height="121.7"/>
<rect x="83.1" y="123" class="st4" width="7.8" height="121.7"/>
<rect x="92.5" y="183.9" class="st5" width="7.8" height="60.8"/>
<rect x="92.5" y="183.9" class="st2" width="7.8" height="60.8"/>
<rect x="101.9" y="200.8" class="st6" width="7.8" height="43.9"/>
<rect x="101.9" y="200.8" class="st7" width="7.8" height="43.9"/>
<rect x="111.3" y="214.3" class="st8" width="7.8" height="30.4"/>
<rect x="111.3" y="214.3" class="st2" width="7.8" height="30.4"/>
<rect x="120.7" y="224.4" class="st8" width="7.8" height="20.3"/>
<rect x="120.7" y="224.4" class="st2" width="7.8" height="20.3"/>
<rect x="130.1" y="241.3" class="st6" width="7.8" height="3.4"/>
<rect x="130.1" y="241.3" class="st9" width="8.5" height="3.4"/>
<rect x="139.5" y="241.3" class="st6" width="7.8" height="3.4"/>
<rect x="139.5" y="241.3" class="st9" width="7.8" height="3.4"/>
<rect x="148.9" y="241.3" class="st6" width="7.8" height="3.4"/>
<rect x="148.9" y="241.3" class="st9" width="7.8" height="3.4"/>
<rect x="158.3" y="231.2" class="st8" width="7.8" height="13.5"/>
<rect x="158.3" y="231.2" class="st2" width="7.8" height="13.5"/>
<rect x="167.7" y="234.6" class="st8" width="7.8" height="10.1"/>
<rect x="167.7" y="234.6" class="st2" width="7.8" height="10.1"/>
<rect x="177.1" y="224.4" class="st6" width="7.8" height="20.3"/>
<rect x="177.1" y="224.4" class="st9" width="7.8" height="20.3"/>
<rect x="186.5" y="241.3" class="st6" width="7.8" height="3.4"/>
<rect x="186.5" y="241.3" class="st9" width="7.8" height="3.4"/>
<rect x="195.9" y="231.2" class="st8" width="7.8" height="13.5"/>
<rect x="195.9" y="231.2" class="st2" width="7.8" height="13.5"/>
<rect x="205.3" y="217.7" class="st8" width="7.8" height="27"/>
<rect x="205.3" y="217.7" class="st2" width="7.8" height="27"/>
<rect x="214.7" y="207.5" class="st5" width="7.8" height="37.2"/>
<rect x="214.7" y="207.5" class="st2" width="7.8" height="37.2"/>
<rect x="224.1" y="160.2" class="st1" width="7.8" height="84.5"/>
<rect x="224.1" y="160.2" class="st10" width="7.8" height="84.5"/>
<rect x="233.5" y="194" class="st5" width="7.8" height="50.7"/>
<rect x="233.5" y="194" class="st2" width="7.8" height="50.7"/>
<rect x="242.9" y="197.4" class="st6" width="7.8" height="47.3"/>
<rect x="242.9" y="197.4" class="st7" width="7.8" height="47.3"/>
<rect x="252.4" y="231.2" class="st8" width="7.8" height="13.5"/>
<rect x="252.4" y="231.2" class="st2" width="7.8" height="13.5"/>
<rect x="261.8" y="234.6" class="st6" width="7.8" height="10.1"/>
<rect x="261.8" y="234.6" class="st9" width="7.8" height="10.1"/>
<rect x="271.2" y="207.5" class="st5" width="7.8" height="37.2"/>
<rect x="271.2" y="207.5" class="st2" width="7.8" height="37.2"/>
<rect x="280.6" y="241.3" class="st6" width="7.8" height="3.4"/>
<rect x="280.6" y="241.3" class="st9" width="7.8" height="3.4"/>
<rect x="290" y="241.3" class="st6" width="7.8" height="3.4"/>
<rect x="290" y="241.3" class="st9" width="7.8" height="3.4"/>
<rect x="299.4" y="227.8" class="st8" width="7.8" height="16.9"/>
<rect x="299.4" y="227.8" class="st2" width="7.8" height="16.9"/>
<rect x="308.8" y="227.8" class="st8" width="7.8" height="16.9"/>
<rect x="308.8" y="227.8" class="st2" width="7.8" height="16.9"/>
<rect x="318.2" y="234.6" class="st8" width="7.8" height="10.1"/>
<rect x="318.2" y="234.6" class="st2" width="7.8" height="10.1"/>
<rect x="327.6" y="227.8" class="st6" width="7.8" height="16.9"/>
<rect x="327.6" y="227.8" class="st9" width="7.8" height="16.9"/>
<rect x="337" y="234.6" class="st8" width="7.8" height="10.1"/>
<rect x="337" y="234.6" class="st2" width="7.8" height="10.1"/>
<rect x="346.4" y="210.9" class="st5" width="7.8" height="33.8"/>
<rect x="346.4" y="210.9" class="st2" width="7.8" height="33.8"/>
<rect x="355.8" y="210.9" class="st5" width="7.8" height="33.8"/>
<rect x="355.8" y="210.9" class="st2" width="7.8" height="33.8"/>
<rect x="365.2" y="224.4" class="st8" width="7.8" height="20.3"/>
<rect x="365.2" y="224.4" class="st2" width="7.8" height="20.3"/>
<rect x="374.6" y="200.8" class="st5" width="7.8" height="43.9"/>
<rect x="374.6" y="200.8" class="st2" width="7.8" height="43.9"/>
<rect x="379.4" y="232.4" transform="matrix(4.571811e-02 -0.999 0.999 4.571811e-02 134.163 612.9435)" class="st8" width="16.9" height="7.8"/>
<rect x="384" y="227.8" class="st2" width="7.8" height="16.9"/>
<rect x="393.4" y="231.2" class="st8" width="7.8" height="13.5"/>
<rect x="393.4" y="231.2" class="st2" width="7.8" height="13.5"/>
<rect x="402.9" y="194" class="st5" width="7.8" height="50.7"/>
<rect x="402.9" y="194" class="st2" width="7.8" height="50.7"/>
<rect x="412.2" y="221" class="st8" width="7.8" height="23.7"/>
<rect x="412.2" y="221" class="st2" width="7.8" height="23.7"/>
<rect x="421.7" y="200.8" class="st6" width="7.8" height="43.9"/>
<rect x="421.7" y="200.8" class="st7" width="7.8" height="43.9"/>
<rect x="431.1" y="234.6" class="st8" width="7.8" height="10.1"/>
<rect x="431.1" y="234.6" class="st2" width="7.8" height="10.1"/>
<text transform="matrix(1 0 0 1 72.497 262.4681)" class="st11 st12">1789</text>
<text transform="matrix(1 0 0 1 128.9272 262.4681)" class="st11 st12">1802</text>
<text transform="matrix(1 0 0 1 185.3574 262.4681)" class="st11 st12">1815</text>
<text transform="matrix(1 0 0 1 241.7973 262.4681)" class="st11 st12">1821</text>
<text transform="matrix(1 0 0 1 298.227 262.4681)" class="st11 st12">1828</text>
<text transform="matrix(1 0 0 1 354.6577 262.4681)" class="st11 st12">1834</text>
<text transform="matrix(1 0 0 1 411.0971 262.4681)" class="st11 st12">1840</text>
<text transform="matrix(1 0 0 1 182.6899 29.0742)" class="st13 st14">Pu</text>
<text transform="matrix(1 0 0 1 204.2899 29.0742)" class="st13 st14">b</text>
<text transform="matrix(1 0 0 1 214.7899 29.0742)" class="st13 st14">lication-</text>
<text transform="matrix(1 0 0 1 280.3899 29.0742)" class="st13 st14">Y</text>
<text transform="matrix(1 0 0 1 289.6899 29.0742)" class="st13 st14">ear</text>
<text transform="matrix(1 0 0 1 237.46 300.0045)" class="st15 st14">Year</text>
<text transform="matrix(-6.123234e-17 -1 1 -6.123234e-17 21.2512 219.3496)" class="st15 st14">Number of A</text>
<text transform="matrix(-6.123234e-17 -1 1 -6.123234e-17 21.2512 143.9492)" class="st15 st14">r</text>
<text transform="matrix(-6.123234e-17 -1 1 -6.123234e-17 21.2512 138.1494)" class="st15 st14">ticles</text>
<line class="st2" x1="59" y1="244.7" x2="59" y2="75.7"/>
<line class="st2" x1="59" y1="244.7" x2="51.8" y2="244.7"/>
<line class="st2" x1="59" y1="210.9" x2="51.8" y2="210.9"/>
<line class="st2" x1="59" y1="177.1" x2="51.8" y2="177.1"/>
<line class="st2" x1="59" y1="143.3" x2="51.8" y2="143.3"/>
<line class="st2" x1="59" y1="109.5" x2="51.8" y2="109.5"/>
<line class="st2" x1="59" y1="75.7" x2="51.8" y2="75.7"/>
<text transform="matrix(1 0 0 1 40.0231 247.8758)" class="st11 st12">0</text>
<text transform="matrix(1 0 0 1 33.9532 215.1096)" class="st11 st12">10</text>
<text transform="matrix(1 0 0 1 33.9528 180.6665)" class="st11 st12">20</text>
<text transform="matrix(1 0 0 1 33.953 147.2814)" class="st11 st12">30</text>
<text transform="matrix(1 0 0 1 33.9532 112.6508)" class="st11 st12">40</text>
<text transform="matrix(1 0 0 1 33.953 79.4883)" class="st11 st12">50</text>
<rect x="373.7" y="44.6" class="st16" width="9.6" height="9.6"/>
<rect x="373.7" y="63.7" class="st17" width="9.6" height="9.6"/>
<rect x="373.7" y="81.6" class="st18" width="9.6" height="9.6"/>
<rect x="373.7" y="99.5" class="st19" width="9.6" height="9.6"/>
<rect x="373.7" y="117.4" class="st20" width="9.6" height="9.6"/>
<text transform="matrix(1 0 0 1 387.9 54.7256)" class="st15 st21">40 to 50</text>
<text transform="matrix(1 0 0 1 387.9 73.2917)" class="st15 st21">30 to 39</text>
<text transform="matrix(1 0 0 1 387.9 91.1861)" class="st15 st21">20 to 29</text>
<text transform="matrix(1 0 0 1 387.8996 109.0803)" class="st15 st21">10 to19</text>
<text transform="matrix(1 0 0 1 387.9 126.9748)" class="st15 st21">0 to 9</text>
</svg>
