<?xml version="1.0" encoding="utf-8"?>
<!-- Generator: Adobe Illustrator 24.1.3, SVG Export Plug-In . SVG Version: 6.00 Build 0)  -->
<svg version="1.1" id="Layer_1" xmlns="http://www.w3.org/2000/svg" xmlns:xlink="http://www.w3.org/1999/xlink" x="0px" y="0px"
	 viewBox="0 0 483 320" style="enable-background:new 0 0 483 320;" xml:space="preserve">
<style type="text/css">
	.st0{fill:#FFFFFF;}
	.st1{fill:#BEBEBE;}
	.st2{fill:none;stroke:#000000;stroke-width:0.75;stroke-linecap:round;stroke-linejoin:round;stroke-miterlimit:10;}
	.st3{font-family:'Helvetica';}
	.st4{font-size:16px;}
	.st5{font-family:'Helvetica-Bold';}
	.st6{font-size:19px;}
	.st7{letter-spacing:-1;}
	.st8{letter-spacing:-2;}
</style>
<rect y="-0.2" class="st0" width="483.8" height="320.2"/>
<rect x="73.7" y="58.8" class="st1" width="7.8" height="185.9"/>
<rect x="73.7" y="58.8" class="st2" width="7.8" height="185.9"/>
<rect x="83.1" y="123" class="st1" width="7.8" height="121.7"/>
<rect x="83.1" y="123" class="st2" width="7.8" height="121.7"/>
<rect x="92.5" y="183.9" class="st1" width="7.8" height="60.8"/>
<rect x="92.5" y="183.9" class="st2" width="7.8" height="60.8"/>
<rect x="101.9" y="200.8" class="st1" width="7.8" height="43.9"/>
<rect x="101.9" y="200.8" class="st2" width="7.8" height="43.9"/>
<rect x="111.3" y="214.3" class="st1" width="7.8" height="30.4"/>
<rect x="111.3" y="214.3" class="st2" width="7.8" height="30.4"/>
<rect x="120.7" y="224.4" class="st1" width="7.8" height="20.3"/>
<rect x="120.7" y="224.4" class="st2" width="7.8" height="20.3"/>
<rect x="130.1" y="241.3" class="st1" width="7.8" height="3.4"/>
<rect x="130.1" y="241.3" class="st2" width="7.8" height="3.4"/>
<rect x="139.5" y="241.3" class="st1" width="7.8" height="3.4"/>
<rect x="139.5" y="241.3" class="st2" width="7.8" height="3.4"/>
<rect x="148.9" y="241.3" class="st1" width="7.8" height="3.4"/>
<rect x="148.9" y="241.3" class="st2" width="7.8" height="3.4"/>
<rect x="158.3" y="231.2" class="st1" width="7.8" height="13.5"/>
<rect x="158.3" y="231.2" class="st2" width="7.8" height="13.5"/>
<rect x="167.7" y="234.6" class="st1" width="7.8" height="10.1"/>
<rect x="167.7" y="234.6" class="st2" width="7.8" height="10.1"/>
<rect x="177.1" y="224.4" class="st1" width="7.8" height="20.3"/>
<rect x="177.1" y="224.4" class="st2" width="7.8" height="20.3"/>
<rect x="186.5" y="241.3" class="st1" width="7.8" height="3.4"/>
<rect x="186.5" y="241.3" class="st2" width="7.8" height="3.4"/>
<rect x="195.9" y="231.2" class="st1" width="7.8" height="13.5"/>
<rect x="195.9" y="231.2" class="st2" width="7.8" height="13.5"/>
<rect x="205.3" y="217.7" class="st1" width="7.8" height="27"/>
<rect x="205.3" y="217.7" class="st2" width="7.8" height="27"/>
<rect x="214.7" y="207.5" class="st1" width="7.8" height="37.2"/>
<rect x="214.7" y="207.5" class="st2" width="7.8" height="37.2"/>
<rect x="224.1" y="160.2" class="st1" width="7.8" height="84.5"/>
<rect x="224.1" y="160.2" class="st2" width="7.8" height="84.5"/>
<rect x="233.5" y="194" class="st1" width="7.8" height="50.7"/>
<rect x="233.5" y="194" class="st2" width="7.8" height="50.7"/>
<rect x="242.9" y="197.4" class="st1" width="7.8" height="47.3"/>
<rect x="242.9" y="197.4" class="st2" width="7.8" height="47.3"/>
<rect x="252.4" y="231.2" class="st1" width="7.8" height="13.5"/>
<rect x="252.4" y="231.2" class="st2" width="7.8" height="13.5"/>
<rect x="261.8" y="234.6" class="st1" width="7.8" height="10.1"/>
<rect x="261.8" y="234.6" class="st2" width="7.8" height="10.1"/>
<rect x="271.2" y="207.5" class="st1" width="7.8" height="37.2"/>
<rect x="271.2" y="207.5" class="st2" width="7.8" height="37.2"/>
<rect x="280.6" y="241.3" class="st1" width="7.8" height="3.4"/>
<rect x="280.6" y="241.3" class="st2" width="7.8" height="3.4"/>
<rect x="290" y="241.3" class="st1" width="7.8" height="3.4"/>
<rect x="290" y="241.3" class="st2" width="7.8" height="3.4"/>
<rect x="299.4" y="227.8" class="st1" width="7.8" height="16.9"/>
<rect x="299.4" y="227.8" class="st2" width="7.8" height="16.9"/>
<rect x="308.8" y="227.8" class="st1" width="7.8" height="16.9"/>
<rect x="308.8" y="227.8" class="st2" width="7.8" height="16.9"/>
<rect x="318.2" y="234.6" class="st1" width="7.8" height="10.1"/>
<rect x="318.2" y="234.6" class="st2" width="7.8" height="10.1"/>
<rect x="327.6" y="227.8" class="st1" width="7.8" height="16.9"/>
<rect x="327.6" y="227.8" class="st2" width="7.8" height="16.9"/>
<rect x="337" y="234.6" class="st1" width="7.8" height="10.1"/>
<rect x="337" y="234.6" class="st2" width="7.8" height="10.1"/>
<rect x="346.4" y="210.9" class="st1" width="7.8" height="33.8"/>
<rect x="346.4" y="210.9" class="st2" width="7.8" height="33.8"/>
<rect x="355.8" y="210.9" class="st1" width="7.8" height="33.8"/>
<rect x="355.8" y="210.9" class="st2" width="7.8" height="33.8"/>
<rect x="365.2" y="224.4" class="st1" width="7.8" height="20.3"/>
<rect x="365.2" y="224.4" class="st2" width="7.8" height="20.3"/>
<rect x="374.6" y="200.8" class="st1" width="7.8" height="43.9"/>
<rect x="374.6" y="200.8" class="st2" width="7.8" height="43.9"/>
<rect x="384" y="227.8" class="st1" width="7.8" height="16.9"/>
<rect x="384" y="227.8" class="st2" width="7.8" height="16.9"/>
<rect x="393.4" y="231.2" class="st1" width="7.8" height="13.5"/>
<rect x="393.4" y="231.2" class="st2" width="7.8" height="13.5"/>
<rect x="402.9" y="194" class="st1" width="7.8" height="50.7"/>
<rect x="402.9" y="194" class="st2" width="7.8" height="50.7"/>
<rect x="412.2" y="221" class="st1" width="7.8" height="23.7"/>
<rect x="412.2" y="221" class="st2" width="7.8" height="23.7"/>
<rect x="421.7" y="200.8" class="st1" width="7.8" height="43.9"/>
<rect x="421.7" y="200.8" class="st2" width="7.8" height="43.9"/>
<rect x="431.1" y="234.6" class="st1" width="7.8" height="10.1"/>
<rect x="431.1" y="234.6" class="st2" width="7.8" height="10.1"/>
<text transform="matrix(1 0 0 1 59.7798 272.4805)" class="st3 st4">1789</text>
<text transform="matrix(1 0 0 1 116.21 272.4805)" class="st3 st4">1802</text>
<text transform="matrix(1 0 0 1 172.6401 272.4805)" class="st3 st4">1815</text>
<text transform="matrix(1 0 0 1 229.0801 272.4805)" class="st3 st4">1821</text>
<text transform="matrix(1 0 0 1 285.5098 272.4805)" class="st3 st4">1828</text>
<text transform="matrix(1 0 0 1 341.9404 272.4805)" class="st3 st4">1834</text>
<text transform="matrix(1 0 0 1 398.3799 272.4805)" class="st3 st4">1840</text>
<text transform="matrix(1 0 0 1 182.6899 36.0898)"><tspan x="0" y="0" class="st5 st6">Pu</tspan><tspan x="24.3" y="0" class="st5 st6">b</tspan><tspan x="35.7" y="0" class="st5 st6">lication </tspan><tspan x="107.5" y="0" class="st5 st6 st7">Y</tspan><tspan x="118.7" y="0" class="st5 st6">ear</tspan></text>
<text transform="matrix(1 0 0 1 240.5 301.2803)"><tspan x="0" y="0" class="st3 st4 st8">Y</tspan><tspan x="8.4" y="0" class="st3 st4">ear</tspan></text>
<text transform="matrix(-6.123234e-17 -1 1 -6.123234e-17 12.96 218.79)"><tspan x="0" y="0" class="st3 st4">Number of A</tspan><tspan x="89.8" y="0" class="st3 st4">r</tspan><tspan x="95.8" y="0" class="st3 st4">ticles</tspan></text>
<line class="st2" x1="59" y1="244.7" x2="59" y2="75.7"/>
<line class="st2" x1="59" y1="244.7" x2="51.8" y2="244.7"/>
<line class="st2" x1="59" y1="210.9" x2="51.8" y2="210.9"/>
<line class="st2" x1="59" y1="177.1" x2="51.8" y2="177.1"/>
<line class="st2" x1="59" y1="143.3" x2="51.8" y2="143.3"/>
<line class="st2" x1="59" y1="109.5" x2="51.8" y2="109.5"/>
<line class="st2" x1="59" y1="75.7" x2="51.8" y2="75.7"/>
<text transform="matrix(-6.123234e-17 -1 1 -6.123234e-17 41.7604 249.1504)" class="st3 st4">0</text>
<text transform="matrix(-6.123234e-17 -1 1 -6.123234e-17 41.76 219.79)" class="st3 st4">10</text>
<text transform="matrix(-6.123234e-17 -1 1 -6.123234e-17 41.7602 185.9902)" class="st3 st4">20</text>
<text transform="matrix(-6.123234e-17 -1 1 -6.123234e-17 41.7599 152.1904)" class="st3 st4">30</text>
<text transform="matrix(-6.123234e-17 -1 1 -6.123234e-17 41.7601 118.3906)" class="st3 st4">40</text>
<text transform="matrix(-6.123234e-17 -1 1 -6.123234e-17 41.7599 84.5898)" class="st3 st4">50</text>
</svg>
